# xmcd CD database file
#
# Track frame offsets:
#	150
#	16714
#	33666
#	46234
#	61170
#	74901
#	88516
#	99495
#	116012
#	129880
#	143084
#	156844
#	171030
#	183904
#	198362
#	212134
#	222180
#	234754
#	249616
#	262106
#	274833
#	290424
#	305571
#	321727
#	336689
#
# Disc length: 4686 seconds
#
# Revision: 0
# Processed by: cddbd v1.4PL0 Copyright (c) Steve Scherf et al.
# Submitted via: Feurio! 1.63 - http://www.feurio.com
#
DISCID=7e124c19
DTITLE=Lobo - Tres En Uno
DYEAR=1900
DGENRE=
TTITLE0=EL Papalote
TTITLE1=Tatuajes
TTITLE2=Aires De Grandeza
TTITLE3=Amor A Primera Vista
TTITLE4=Por La Man0 Ana
TTITLE5=Sola
TTITLE6=Alejate
TTITLE7=Hombre Lobo
TTITLE8=Doce Rosas
TTITLE9=Vamos A Bailar
TTITLE10=Callate Los Ojos
TTITLE11=Triste Mujer
TTITLE12=Cumbia Del Amor
TTITLE13=Morena
TTITLE14=La Chica De La Tanga
TTITLE15=El Ruego
TTITLE16=Pie Candente
TTITLE17=El Baile De La Vela
TTITLE18=Veneno
TTITLE19=Dimelo A Mi
TTITLE20=Si Me Pones La Mano
TTITLE21=Soledad
TTITLE22=Ven Junto A  Mi
TTITLE23=Viejo Motel
TTITLE24=Plegaria
EXTD=
EXTT0=
EXTT1=
EXTT2=
EXTT3=
EXTT4=
EXTT5=
EXTT6=
EXTT7=
EXTT8=
EXTT9=
EXTT10=
EXTT11=
EXTT12=
EXTT13=
EXTT14=
EXTT15=
EXTT16=
EXTT17=
EXTT18=
EXTT19=
EXTT20=
EXTT21=
EXTT22=
EXTT23=
EXTT24=
PLAYORDER=
